Jump_normalized_precision_landing11_filtered_grf
version=1
nRows=10
nColumns=37
inDegrees=yes
endheader
time		1_ground_force_vx		1_ground_force_vy		1_ground_force_vz		1_ground_force_px		1_ground_force_py		1_ground_force_pz		1_ground_torque_x		1_ground_torque_y		1_ground_torque_z		2_ground_force_vx		2_ground_force_vy		2_ground_force_vz		2_ground_force_px		2_ground_force_py		2_ground_force_pz		2_ground_torque_x		2_ground_torque_y		2_ground_torque_z		3_ground_force_vx		3_ground_force_vy		3_ground_force_vz		3_ground_force_px		3_ground_force_py		3_ground_force_pz		3_ground_torque_x		3_ground_torque_y		3_ground_torque_z		4_ground_force_vx		4_ground_force_vy		4_ground_force_vz		4_ground_force_px		4_ground_force_py		4_ground_force_pz		4_ground_torque_x		4_ground_torque_y		4_ground_torque_z		
0.362000		-0.000000		0.000000		0.000000		0.083522		0.000000		0.166275		0.000000		0.000000		-0.000000		0.000000		0.000000		0.000000		-0.190458		0.000000		0.249503		0.000000		-0.000000		0.000000		-62.354707		567.314941		83.053288		0.382163		1.274136		1.869118		3.264414		-29.700254		-4.348032		73.328942		542.612929		81.358187		-0.351926		1.267277		1.862448		4.282821		31.691636		4.751774		
0.364929		0.000000		0.000000		0.000000		0.083522		0.000000		0.166275		0.000000		0.000000		-0.000000		0.000000		0.000000		0.000000		-0.190458		0.000000		0.249503		0.000000		-0.000000		0.000000		-62.488572		571.209155		82.003457		0.382149		1.274121		1.869142		3.277211		-29.957045		-4.300668		73.634403		545.461552		81.290844		-0.351927		1.267283		1.862511		4.308457		31.915757		4.756447		
0.367859		0.000000		-0.000000		-0.000000		0.083522		0.000000		0.166275		-0.000000		-0.000000		0.000000		0.000000		0.000000		0.000000		-0.190458		0.000000		0.249503		0.000000		-0.000000		0.000000		-62.663496		574.906180		80.924652		0.382144		1.274102		1.869170		3.291946		-30.201960		-4.251272		73.921730		548.339977		81.341951		-0.351923		1.267283		1.862577		4.332608		32.138616		4.767513		
0.370788		0.000000		-0.000000		-0.000000		0.083522		0.000000		0.166275		-0.000000		-0.000000		0.000000		-0.000000		0.000000		0.000000		-0.190458		0.000000		0.249503		0.000000		-0.000000		0.000000		-62.891467		578.337796		79.836213		0.382147		1.274082		1.869200		3.309590		-30.434357		-4.201287		74.140297		551.249127		81.493944		-0.351916		1.267278		1.862642		4.352412		32.361127		4.784108		
0.373717		0.000000		-0.000000		-0.000000		0.083522		0.000000		0.166275		-0.000000		-0.000000		0.000000		-0.000000		-0.000000		0.000000		-0.190458		0.000000		0.249503		-0.000000		0.000000		-0.000000		-63.146190		581.425045		78.739418		0.382153		1.274061		1.869237		3.329042		-30.652491		-4.151109		74.249614		554.164707		81.697986		-0.351909		1.267266		1.862707		4.365671		32.583343		4.803614		
0.376646		0.000000		-0.000000		-0.000000		0.083522		0.000000		0.166275		-0.000000		-0.000000		0.000000		-0.000000		-0.000000		-0.000000		-0.190458		0.000000		0.249503		-0.000000		0.000000		-0.000000		-63.378623		584.109396		77.619381		0.382163		1.274042		1.869279		3.347823		-30.854170		-4.100056		74.233695		557.052859		81.885404		-0.351898		1.267250		1.862768		4.371670		32.805204		4.822285		
0.379576		-0.000000		-0.000000		-0.000000		0.083522		0.000000		0.166275		-0.000000		-0.000000		0.000000		-0.000000		-0.000000		-0.000000		-0.190458		0.000000		0.249503		-0.000000		0.000000		-0.000000		-63.543591		586.378249		76.455830		0.382172		1.274027		1.869327		3.363477		-31.038060		-4.046945		74.107324		559.890718		81.980620		-0.351886		1.267229		1.862823		4.371531		33.027506		4.835971		
0.382505		-0.000000		0.000000		0.000000		0.083522		0.000000		0.166275		0.000000		0.000000		-0.000000		-0.000000		-0.000000		-0.000000		-0.190458		0.000000		0.249503		-0.000000		0.000000		-0.000000		-63.622196		588.273450		75.235814		0.382181		1.274016		1.869381		3.374815		-31.204745		-3.990856		73.908491		562.681696		81.914180		-0.351869		1.267207		1.862868		4.367707		33.252317		4.840812		
0.385434		-0.000000		0.000000		0.000000		0.083522		0.000000		0.166275		0.000000		0.000000		-0.000000		-0.000000		-0.000000		-0.000000		-0.190458		0.000000		0.249503		-0.000000		0.000000		-0.000000		-63.626743		589.878934		73.958249		0.382191		1.274012		1.869438		3.382240		-31.356508		-3.931438		73.682666		565.459858		81.610600		-0.351844		1.267184		1.862899		4.362970		33.482568		4.832407		
0.388364		-0.000000		0.000000		0.000000		0.083522		0.000000		0.166275		0.000000		0.000000		-0.000000		0.000000		0.000000		-0.000000		-0.190458		0.000000		0.249503		0.000000		-0.000000		0.000000		-63.588483		591.297159		72.634590		0.382200		1.274013		1.869494		3.387131		-31.496284		-3.868984		73.454017		568.267172		81.066699		-0.351809		1.267163		1.862917		4.358667		33.720247		4.810393		
